:SAMPLES-PER-SECOND 30
:FULLY-SPECIFIED
:DEGREES
107
root  -0.765128 39.5711 15.4036 -173.481 2.08159 179.59
RightUpLeg  -20.1934 4.75209 -6.94295
RightLeg  16.2143 2.94386 -0.0121237
RightFoot  -1.53635 -0.425582 4.8392
RightToes  -5.8209e-011 0 -3.6325e-017
Spine  39.5161 -1.05577 7.57585
Spine1  8.69699 2.12133 -1.42906
HEad  8.89453 -7.76705 2.33433
LeftShoulder1  6.45957 -16.8246 -25.583
LeftArm  -2.93284 -40.1675 -76.7465
LeftForeArm  42.4705 5.79197 -1.28505
LeftHand  -0.246645 0.021 5.37786
RightShoulder  9.41835 17.5717 38.5736
RightArm  -4.8036 40.4828 51.8791
RightForeArm  23.1207 -1.29411 9.63924
RightHand  -0.24729 -0.0210522 -5.37781
LeftUpLeg  -18.7009 13.1652 6.45953
LeftLeg  14.5603 -0.398191 -0.451089
LeftFoot  0.364824 0.719341 -7.03433
LeftToes  -7.45818e-011 -3.37383e-011 1.08613e-011
108
root  -0.768165 39.5575 15.4098 -173.432 2.29225 179.62
RightUpLeg  -20.3713 4.9197 -6.95701
RightLeg  16.3439 2.96482 0.0517381
RightFoot  -1.55997 -0.424575 4.83357
RightToes  -5.8209e-011 0 -3.6325e-017
Spine  39.6784 -0.968239 7.55077
Spine1  8.57309 2.23125 -1.47402
HEad  8.81749 -7.97994 2.1614
LeftShoulder1  6.53013 -16.8898 -25.8371
LeftArm  -2.9828 -40.064 -76.5232
LeftForeArm  42.7345 5.79043 -1.31031
LeftHand  -0.246645 0.021 5.37786
RightShoulder  9.39225 17.5814 38.4345
RightArm  -4.81821 40.2867 51.8567
RightForeArm  23.0814 -1.12632 9.65127
RightHand  -0.24729 -0.0210522 -5.37781
LeftUpLeg  -18.8332 13.2603 6.46514
LeftLeg  14.7911 -0.320928 -0.366758
LeftFoot  0.22116 0.720387 -7.12389
LeftToes  -7.45818e-011 -3.37383e-011 1.08613e-011
109
root  -0.773119 39.5468 15.4092 -173.436 2.48239 179.624
RightUpLeg  -20.4791 5.02908 -6.98735
RightLeg  16.48 3.022 0.118677
RightFoot  -1.60011 -0.423632 4.83073
RightToes  -5.8209e-011 0 -3.6325e-017
Spine  39.8007 -0.908612 7.5196
Spine1  8.57625 2.30248 -1.51148
HEad  8.80538 -8.00891 2.02235
LeftShoulder1  6.5257 -16.8479 -25.8834
LeftArm  -2.87315 -39.9985 -76.5308
LeftForeArm  42.8487 5.80031 -1.38333
LeftHand  -0.246645 0.021 5.37786
RightShoulder  9.35016 17.5946 38.2154
RightArm  -4.76547 40.1609 52.0345
RightForeArm  22.6914 -0.855415 9.68536
RightHand  -0.24729 -0.0210522 -5.37781
LeftUpLeg  -18.8827 13.2591 6.46339
LeftLeg  14.9873 -0.186024 -0.26447
LeftFoot  0.0967753 0.721562 -7.2059
LeftToes  -7.45818e-011 -3.37383e-011 1.08613e-011
110
root  -0.77729 39.5399 15.4018 -173.455 2.67661 179.615
RightUpLeg  -20.5387 5.03462 -7.00986
RightLeg  16.5774 3.18635 0.213387
RightFoot  -1.63565 -0.421176 4.80757
RightToes  -5.8209e-011 0 -3.6325e-017
Spine  39.8375 -0.859112 7.48446
Spine1  8.69577 2.36613 -1.57768
HEad  8.89185 -7.84509 1.91327
LeftShoulder1  6.50396 -16.7895 -25.8687
LeftArm  -2.7448 -40.0209 -76.589
LeftForeArm  42.9555 5.80778 -1.44135
LeftHand  -0.246645 0.021 5.37786
RightShoulder  9.32307 17.5846 38.1121
RightArm  -4.74417 40.1675 52.1638
RightForeArm  22.6916 -0.733584 9.68265
RightHand  -0.24729 -0.0210522 -5.37781
LeftUpLeg  -18.859 13.2447 6.46745
LeftLeg  15.1043 -0.0240561 -0.178637
LeftFoot  -0.00295623 0.72397 -7.28779
LeftToes  -7.45818e-011 -3.37383e-011 1.08613e-011
111
root  -0.77668 39.5347 15.3908 -173.487 2.8774 179.64
RightUpLeg  -20.5484 5.02207 -6.979
RightLeg  16.6191 3.37787 0.313639
RightFoot  -1.66412 -0.41983 4.80622
RightToes  -5.8209e-011 0 -3.6325e-017
Spine  39.8243 -0.805531 7.48179
Spine1  8.83172 2.45972 -1.68237
HEad  8.99474 -7.6981 1.75614
LeftShoulder1  6.50294 -16.774 -25.8892
LeftArm  -2.70444 -40.0673 -76.5714
LeftForeArm  43.2726 5.80114 -1.44428
LeftHand  -0.246645 0.021 5.37786
RightShoulder  9.32557 17.5692 38.155
RightArm  -4.67918 40.2115 52.1281
RightForeArm  22.9494 -0.709729 9.70138
RightHand  -0.24729 -0.0210522 -5.37781
LeftUpLeg  -18.8015 13.3013 6.51845
LeftLeg  15.205 0.114409 -0.114658
LeftFoot  -0.101258 0.730137 -7.40574
LeftToes  -7.45818e-011 -3.37383e-011 1.08613e-011
112
root  -0.772419 39.5253 15.38 -173.554 3.07687 179.728
RightUpLeg  -20.5264 5.16061 -6.89733
RightLeg  16.6766 3.42256 0.374486
RightFoot  -1.71248 -0.421598 4.85922
RightToes  -5.8209e-011 0 -3.6325e-017
Spine  39.8546 -0.753624 7.53271
Spine1  8.89027 2.58148 -1.80251
HEad  9.06855 -7.67895 1.6105
LeftShoulder1  6.49615 -16.7649 -25.8694
LeftArm  -2.70474 -40.0637 -76.559
LeftForeArm  43.6623 5.78886 -1.42419
LeftHand  -0.246645 0.021 5.37786
RightShoulder  9.34294 17.5749 38.2228
RightArm  -4.47512 40.2188 52.068
RightForeArm  22.8437 -0.638036 9.80247
RightHand  -0.24729 -0.0210522 -5.37781
LeftUpLeg  -18.7651 13.3371 6.64018
LeftLeg  15.4267 0.277612 -0.0103444
LeftFoot  -0.240029 0.737961 -7.57295
LeftToes  -7.45818e-011 -3.37383e-011 1.08613e-011
113
root  -0.769462 39.5101 15.3693 -173.644 3.28583 179.826
RightUpLeg  -20.5288 5.46965 -6.83395
RightLeg  16.8257 3.31676 0.398514
RightFoot  -1.79894 -0.423338 4.92062
RightToes  -5.8209e-011 0 -3.6325e-017
Spine  39.9365 -0.692418 7.57814
Spine1  8.87592 2.69584 -1.87793
HEad  9.14264 -7.68713 1.58312
LeftShoulder1  6.47679 -16.741 -25.8096
LeftArm  -2.71187 -40.0065 -76.5649
LeftForeArm  43.9389 5.78025 -1.41092
LeftHand  -0.246645 0.021 5.37786
RightShoulder  9.35273 17.5889 38.2388
RightArm  -4.23882 40.2112 52.1148
RightForeArm  22.4926 -0.568609 9.9174
RightHand  -0.24729 -0.0210522 -5.37781
LeftUpLeg  -18.7652 13.2663 6.77696
LeftLeg  15.7746 0.503096 0.154121
LeftFoot  -0.430352 0.741106 -7.72629
LeftToes  -7.45818e-011 -3.37383e-011 1.08613e-011
114
root  -0.768266 39.4951 15.3553 -173.725 3.4899 179.85
RightUpLeg  -20.5737 5.7552 -6.85035
RightLeg  17.0437 3.23482 0.430934
RightFoot  -1.90788 -0.419877 4.92654
RightToes  -5.8209e-011 0 -3.6325e-017
Spine  39.9957 -0.607466 7.53246
Spine1  8.84981 2.76508 -1.8672
HEad  9.21672 -7.63969 1.62571
LeftShoulder1  6.47775 -16.7309 -25.8313
LeftArm  -2.74599 -39.9546 -76.4852
LeftForeArm  44.2284 5.7715 -1.39896
LeftHand  -0.246645 0.021 5.37786
RightShoulder  9.35925 17.5932 38.2597
RightArm  -4.13346 40.21 52.1756
RightForeArm  22.4619 -0.607714 9.9579
RightHand  -0.24729 -0.0210522 -5.37781
LeftUpLeg  -18.7518 13.2027 6.83294
LeftLeg  16.0741 0.682085 0.290852
LeftFoot  -0.61906 0.735025 -7.78688
LeftToes  -7.45818e-011 -3.37383e-011 1.08613e-011
115
root  -0.762594 39.4857 15.3398 -173.798 3.63383 179.789
RightUpLeg  -20.6102 5.86931 -6.92694
RightLeg  17.2561 3.25635 0.492103
RightFoot  -2.01297 -0.412128 4.87943
RightToes  -5.8209e-011 0 -3.6325e-017
Spine  40.026 -0.519435 7.3863
Spine1  8.8273 2.77682 -1.797
HEad  9.2508 -7.5805 1.6018
LeftShoulder1  6.5003 -16.7328 -25.9441
LeftArm  -2.75504 -39.9712 -76.3486
LeftForeArm  44.7067 5.75953 -1.39458
LeftHand  -0.246645 0.021 5.37786
RightShoulder  9.38322 17.6044 38.3463
RightArm  -4.12883 40.185 52.1114
RightForeArm  22.7056 -0.694349 9.95621
RightHand  -0.24729 -0.0210522 -5.37781
LeftUpLeg  -18.6748 13.2597 6.79699
LeftLeg  16.1987 0.71317 0.33302
LeftFoot  -0.742606 0.727452 -7.784
LeftToes  -7.45818e-011 -3.37383e-011 1.08613e-011
116
root  -0.747106 39.4806 15.3282 -173.88 3.72078 179.726
RightUpLeg  -20.6053 5.90032 -6.98021
RightLeg  17.4198 3.30006 0.561909
RightFoot  -2.09439 -0.404535 4.82111
RightToes  -5.8209e-011 0 -3.6325e-017
Spine  40.091 -0.450234 7.20252
Spine1  8.79177 2.76065 -1.72172
HEad  9.25451 -7.52022 1.48759
LeftShoulder1  6.50885 -16.7129 -26.0212
LeftArm  -2.66744 -40.0653 -76.2948
LeftForeArm  45.306 5.74816 -1.41178
LeftHand  -0.246645 0.021 5.37786
RightShoulder  9.41313 17.6323 38.4255
RightArm  -4.10346 40.1221 51.9996
RightForeArm  22.8068 -0.713541 9.97641
RightHand  -0.24729 -0.0210522 -5.37781
LeftUpLeg  -18.5501 13.3448 6.77901
LeftLeg  16.2152 0.696694 0.331093
LeftFoot  -0.802368 0.728148 -7.82923
LeftToes  -7.45818e-011 -3.37383e-011 1.08613e-011
